<?xml version="1.0" standalone="no"?><!DOCTYPE svg PUBLIC "-//W3C//DTD SVG 1.1//EN" "http://www.w3.org/Graphics/SVG/1.1/DTD/svg11.dtd"><svg width="200" height="200" viewBox="0 0 200 200" version="1.1" xmlns="http://www.w3.org/2000/svg" xmlns:xlink="http://www.w3.org/1999/xlink"><defs><style type="text/css"><![CDATA[
@font-face { font-family: ifont; src: url("//at.alicdn.com/t/font_1442373896_4754455.eot?#iefix") format("embedded-opentype"), url("//at.alicdn.com/t/font_1442373896_4754455.woff") format("woff"), url("//at.alicdn.com/t/font_1442373896_4754455.ttf") format("truetype"), url("//at.alicdn.com/t/font_1442373896_4754455.svg#ifont") format("svg"); }

]]></style></defs><g class="transform-group"><g transform="scale(0.1953125, 0.1953125)"><path d="M512 65.326844c-246.690472 0-446.673156 199.982684-446.673156 446.673156s199.982684 446.673156 446.673156 446.673156 446.673156-199.982684 446.673156-446.673156S758.690472 65.326844 512 65.326844zM706.635909 718.345602l-4.650927 0c-6.39771-12.151761-8.18952-7.875365-9.256828-27.9117 5.64558-4.604878 10.321066-12.05557 13.907755-18.608823 3.054569 1.550309 6.155187 3.100618 9.230222 4.65195C712.791096 690.433902 709.690478 704.387705 706.635909 718.345602zM785.259594 383.39804l-4.625344 0 0 27.9117c-10.975982 0.934279-11.43647 1.925862-18.512632 4.65195 3.270487 8.686846 4.604878 18.184151 4.625344 32.565696-3.075035-1.550309-6.175653-3.103688-9.230222-4.653997-7.511067 6.03546 5.04183 8.759501-13.907755 13.956873l0 9.302877-13.858636 0c-5.622044 9.899464-10.419304 10.128685-13.884218 23.260773-16.764825 3.405563-20.37505 11.559267-32.368198 18.608823l0-13.956873 4.625344 0 0-13.954827-9.253758 0c-3.103688 11.592013-11.002588 21.017686-18.512632 27.9117l-9.255805 0c-4.459568 4.820796 4.313236 4.529153 4.628414 4.650927 5.28026 5.293563 0.023536 1.852184 9.255805 4.650927l0 9.305947 9.253758 0c1.526773-3.100618 3.077082-6.204305 4.628414-9.305947 7.705496 1.551332 15.408945 3.101641 23.11444 4.65195l0 9.304923-13.858636 0c-7.341199 12.782118-11.43647 8.358365-13.884218 27.912723 11.048637 6.324032 15.484669 13.265118 18.488073 27.9117l9.253758 0c-1.550309 4.650927-3.075035 9.302877-4.601808 13.956873l4.601808 0 0 4.650927-4.601808 0 0 4.65195c0.605797 1.732457 15.798824 6.602372 9.255805 23.25975-3.103688 1.550309-6.204305 3.101641-9.255805 4.65195l0 13.956873-4.65195 0c-4.264117 7.059789-3.756557 11.362792-4.604878 23.257703l-9.253758 0 0 9.304923-9.256828 0c-3.246951 14.355963-9.014304 19.781532-23.11444 23.260773l0 4.650927-18.511609 0 0 9.302877c-8.819876-4.601808 0.99363-2.712785-4.628414-9.302877l-4.625344 0 0 9.302877c-6.592139 5.694699-27.815509 7.596002-37.022195 9.305947l0 4.650927c12.258185 10.588149 7.219425 12.721743 4.65195 27.9117-7.706519 1.550309-15.434527 3.104711-23.139 4.65502l0-18.608823c4.626367-1.550309 9.230222-3.103688 13.882172-4.650927-1.550309-4.653997-3.100618-9.305947-4.650927-13.956873-10.758018-1.550309-21.564132-3.100618-32.371268-4.65195l0-13.956873c-19.818371-3.365654-28.832675-0.337691-55.484685 0l0 18.608823-4.65195 0c-8.650007-12.69616-5.54939-4.422729-18.486026-9.305947-3.756557-6.116301-3.273557-5.485945-9.256828-9.302877l0-4.650927 4.628414 0c0.168846-1.841951-4.094248-10.44284-4.628414-18.605753l-13.884218 0c2.083451-14.563694 3.418866-14.175861 9.256828-23.26282l4.628414 0c5.210675-11.969613-3.174296-24.337291-4.628414-32.56365-5.281283 5.294586-1.841951 0.010233-4.628414 9.302877-12.672624-3.004427-10.539031-6.092765-23.139-9.302877-7.364735 8.855692-17.276479 12.56313-32.370245 13.954827-4.363378-8.381901-6.396687-7.327896-9.255805-18.605753-7.703449-1.550309-15.408945-3.100618-23.11444-4.650927l0 9.302877c-8.624425-2.663666-11.920494-1.924839-4.628414-9.302877-10.780531-1.553379-21.587668-3.103688-32.393781-4.65195-1.524726-3.100618-3.077082-6.204305-4.601808-9.304923-3.104711-1.551332-6.178723-3.101641-9.256828-4.65195-11.58178-15.871479-6.639211-24.349571-32.370245-27.9117-4.847401-18.22099-13.036921-16.161075-13.907755-41.868573 3.100618 1.550309 6.178723 3.100618 9.255805 4.650927l0-27.9117-4.604878 0c1.526773-3.100618 3.054569-6.201236 4.604878-9.302877l-4.604878 0c-10.515494-12.939707-12.598946-2.713808-13.882172-27.9117l-9.255805 0 0-9.305947c3.077082 1.551332 6.178723 3.101641 9.255805 4.65195L248.677732 457.830263c-7.973602-5.244444-6.27389-2.945075-9.255805-13.956873 10.223852-5.54939 13.811564-10.840906 27.742854-13.954827l0 9.302877c15.408945-3.100618 30.844495-6.201236 46.279023-9.302877 4.942569-19.082614 11.509125-11.667737 4.601808-32.56672l13.884218 0 0-4.650927c3.077082 1.550309 6.178723 3.100618 9.256828 4.650927l0-9.302877c3.077082-1.550309 6.178723-3.100618 9.255805-4.653997l0-4.650927c3.511987-5.54632-0.364297-0.411369 4.626367-4.65195 5.816472 8.881274 4.701069 7.706519 18.511609 9.305947l0-13.956873 4.602831 0c5.406127-6.335289 8.43102-7.113001 18.511609-9.302877 5.768377 21.852704 19.821441 18.522865 23.11444 46.520523-5.257747 5.291516-1.840928 0.010233-4.601808 9.302877 23.549346 3.852748 37.069267 14.125719 41.625026 37.216623 13.861706 1.550309 27.76946 3.101641 41.627073 4.65195l0 4.650927 9.256828 0 0 4.650927c7.702426 1.551332 15.407921 3.101641 23.11444 4.65195l0 4.650927c4.650927-1.550309 9.255805-3.100618 13.881149-4.650927l0-4.65195 32.396851 0c3.075035-4.650927 6.152117-9.302877 9.253758-13.954827l9.255805 0c1.404999-1.914606-7.463995-10.468422-4.650927-18.608823l4.650927 0 0-4.650927c19.141966 6.880711 17.97949-0.254803 36.975123-4.65502l0-9.302877c9.253758-1.551332 18.509563-3.101641 27.764344-4.65195-1.548262-4.650927-3.075035-9.304923-4.625344-13.956873-17.711384 1.345648-21.223371 6.082532-27.742854 0l-4.628414 0c1.526773-7.752568 3.077082-15.505136 4.628414-23.260773l18.509563 0c1.526773-4.650927 3.054569-9.302877 4.604878-13.954827l4.628414 0 0-9.304923 4.625344 0c3.176342-8.94165-2.422166-14.19735-4.625344-18.606777l4.625344 0c8.093329-9.534144 18.754133-9.594519 37.022195-9.305947 7.92346 14.719236 18.851347 22.87294 23.11444 41.869596l23.11444 0c3.103688 6.201236 6.178723 12.406564 9.255805 18.608823 10.807137-6.201236 21.611204-12.406564 32.394804-18.608823L785.259594 383.39804z" fill="#fff"></path></g></g></svg>