<?xml version="1.0" standalone="no"?><!DOCTYPE svg PUBLIC "-//W3C//DTD SVG 1.1//EN" "http://www.w3.org/Graphics/SVG/1.1/DTD/svg11.dtd"><svg width="217.96875" height="200" viewBox="0 0 217.96875 200" version="1.1" xmlns="http://www.w3.org/2000/svg" xmlns:xlink="http://www.w3.org/1999/xlink"><defs><style type="text/css"><![CDATA[
@font-face { font-family: ifont; src: url("//at.alicdn.com/t/font_1442373896_4754455.eot?#iefix") format("embedded-opentype"), url("//at.alicdn.com/t/font_1442373896_4754455.woff") format("woff"), url("//at.alicdn.com/t/font_1442373896_4754455.ttf") format("truetype"), url("//at.alicdn.com/t/font_1442373896_4754455.svg#ifont") format("svg"); }

]]></style></defs><g class="transform-group"><g transform="scale(0.1953125, 0.1953125)"><path d="M974.935146 1024 140.262462 1024C62.929051 1024 0 961.100958 0 883.767547L0 351.286346c0-77.333411 62.929051-140.232453 140.262462-140.232453l834.672684 0c77.333411 0 140.232453 62.899042 140.232453 140.232453L1115.1676 883.767547C1115.1676 961.100958 1052.268558 1024 974.935146 1024zM140.262462 304.502183c-25.777804 0-46.754154 21.006359-46.754154 46.784163L93.508308 883.767547c0 25.747795 20.946341 46.754154 46.754154 46.754154l834.672684 0c25.747795 0 46.724145-20.97635 46.724145-46.754154L1021.659291 351.286346c0-25.747795-20.946341-46.784163-46.724145-46.784163L140.262462 304.502183zM798.571755 241.00296l-93.478299 0c0-81.32462-66.170032-147.494652-147.524661-147.494652-81.32462 0-147.494652 66.170032-147.494652 147.494652L316.595844 241.00296C316.595844 108.122732 424.688568 0 557.568795 0 690.509041 0 798.571755 108.122732 798.571755 241.00296zM321.367289 267.350936l93.478299 0 0 700.322012-93.478299 0 0-700.322012ZM700.292002 267.350936l93.478299 0 0 700.322012-93.478299 0 0-700.322012ZM848.296809 977.245846l-93.44829 0c0-172.912347 140.65258-313.594936 313.564927-313.594936l0 93.478299C947.056707 757.129209 848.296809 855.889107 848.296809 977.245846zM360.379099 977.245846 266.870791 977.245846c0-121.356739-98.729889-220.116637-220.116637-220.116637l0-93.478299C219.666501 663.65091 360.379099 804.363508 360.379099 977.245846z" fill="#fff"></path></g></g></svg>