<?xml version="1.0" standalone="no"?><!DOCTYPE svg PUBLIC "-//W3C//DTD SVG 1.1//EN" "http://www.w3.org/Graphics/SVG/1.1/DTD/svg11.dtd"><svg width="200" height="200" viewBox="0 0 200 200" version="1.1" xmlns="http://www.w3.org/2000/svg" xmlns:xlink="http://www.w3.org/1999/xlink"><defs><style type="text/css"><![CDATA[
@font-face { font-family: ifont; src: url("//at.alicdn.com/t/font_1442373896_4754455.eot?#iefix") format("embedded-opentype"), url("//at.alicdn.com/t/font_1442373896_4754455.woff") format("woff"), url("//at.alicdn.com/t/font_1442373896_4754455.ttf") format("truetype"), url("//at.alicdn.com/t/font_1442373896_4754455.svg#ifont") format("svg"); }

]]></style></defs><g class="transform-group"><g transform="scale(0.1953125, 0.1953125)"><path d="M995.732632 347.170239l-95.767073 0c-4.554087 0-8.743317 1.357074-12.499053 3.383655l-43.173513-130.035913c-13.816391-73.98404-65.87531-109.655713-129.861311-109.655713L308.863891 110.862269c-73.449399 0-118.028152 47.919059-129.861311 109.584668L135.714673 350.924771c-3.938767-2.283064-8.407359-3.754533-13.261279-3.754533L26.664647 347.170239C11.947554 347.170239 0 359.096118 0 373.856561l0 23.138903c0 14.715889 11.947554 26.664647 26.664647 26.664647l36.264113 6.19534c-11.446628 22.38029-17.983946 47.984083-17.983946 77.774697l-13.425043 153.49271c0 4.446918 0.326324 8.97933 0.877824 13.539437-0.50815 2.78399-0.877824 5.688394-0.877824 8.657822l0 184.657258c0 26.272095 21.325456 47.569856 47.597551 47.569856l72.643824 0c26.29377 0 47.591531-21.296557 47.591531-47.569856L199.352677 808.621321l624.560117 0 0 59.35485c0 26.272095 21.302577 47.569856 47.597551 47.569856l72.643824 0c26.272095 0 47.591531-21.296557 47.591531-47.569856L991.745699 683.318913c0-2.975449-0.364857-5.873833-0.877824-8.657822 0.528621-4.560107 0.877824-9.092519 0.877824-13.539437l-13.425043-153.48669c0-29.86768-6.560197-55.491944-18.050174-77.944482l35.458538-6.031576c14.737564 0 26.664647-11.947554 26.664647-26.664647l0-23.138903C1022.397279 359.096118 1010.470196 347.170239 995.732632 347.170239zM211.026889 319.842106l31.704005-84.384264 0.441922-1.978415c3.153663-17.065182 10.199131-20.10445 20.605376-33.280235l496.332834 0c10.498964 13.539437 17.043507 16.977279 19.940686 33.094796l32.209747 86.548118 11.791015 47.014744c-2.675616 34.401296-44.006783 61.571686-78.402058 61.571686L277.639137 428.428535c-34.422971 0-75.755342-27.170389-78.424937-61.571686L211.026889 319.842106zM233.245823 721.126744c-39.811532 0-72.065833-32.260322-72.065833-72.071854s32.254301-72.065833 72.065833-72.065833c39.811532 0 72.07065 32.254301 72.07065 72.065833S273.057355 721.126744 233.245823 721.126744zM635.757487 667.960009l-0.006021 0c0 11.856038-9.60067 21.435034-21.43985 21.435034L412.132804 689.395043c-11.83316 0-21.43985-9.578995-21.43985-21.435034l0-60.236286c0-11.83316 9.60067-21.413359 21.43985-21.413359l202.180015 0c11.83918 0 21.444667 9.578995 21.444667 21.413359L635.757487 667.960009zM790.022056 721.126744c-39.811532 0-72.092324-32.260322-72.092324-72.071854s32.280792-72.065833 72.092324-72.065833c39.811532 0 72.065833 32.254301 72.065833 72.065833C862.093909 688.866422 829.833588 721.126744 790.022056 721.126744z" fill="#fff"></path></g></g></svg>